<svg width="20" height="20" viewBox="0 0 20 20" fill="none" xmlns="http://www.w3.org/2000/svg">
<path d="M4.28571 6.42857H11.4286" stroke="white" stroke-width="1.5" stroke-linecap="round" stroke-linejoin="round"/>
<path d="M13.5714 8.57143C14.7549 8.57143 15.7143 7.61205 15.7143 6.42858C15.7143 5.24511 14.7549 4.28572 13.5714 4.28572C12.388 4.28572 11.4286 5.24511 11.4286 6.42858C11.4286 7.61205 12.388 8.57143 13.5714 8.57143Z" stroke="white" stroke-width="1.5" stroke-linecap="round" stroke-linejoin="round"/>
<path d="M15.7143 13.5714H11.4286M7.14285 13.5714H4.28571" stroke="white" stroke-width="1.5" stroke-linecap="round" stroke-linejoin="round"/>
<path d="M9.28568 15.7143C10.4691 15.7143 11.4285 14.7549 11.4285 13.5714C11.4285 12.388 10.4691 11.4286 9.28568 11.4286C8.10221 11.4286 7.14282 12.388 7.14282 13.5714C7.14282 14.7549 8.10221 15.7143 9.28568 15.7143Z" stroke="white" stroke-width="1.5" stroke-linecap="round" stroke-linejoin="round"/>
</svg>
